<svg viewBox="0 0 500 500" xmlns="http://www.w3.org/2000/svg"><path d="m410.26 258c89.08 51.43 89.55 134.82 1.05 186.26s-232.48 51.43-321.56 0-89.56-134.86-1.06-186.26 232.48-51.47 321.57 0z" fill="#f0f0f0"/><path d="m218 234.18-10-5.77a7 7 0 0 0 -7 0l-67.7 39.09c-13.81-2.05-29 0-39.8 6.28s-14.3 15-10.82 22.94l-44.53 25.71a3 3 0 0 0 0 5.2l10 5.76a7 7 0 0 0 7 0l41.49-23.95c16.41 7.85 40.69 7.34 56-1.54s16.08-22.83 2.65-32.3l62.71-36.23a3 3 0 0 0 0-5.19z" fill="#e0e0e0"/><path d="m300.51 270.49c16.31 9.42 16.4 24.7.19 34.12s-42.59 9.42-58.91 0-16.4-24.7-.19-34.12 42.59-9.42 58.91 0z" fill="#e1e1e1"/><path d="m421.11 321.76c16.32 9.42 16.4 24.69.19 34.12s-42.58 9.42-58.9 0-16.41-24.7-.2-34.12 42.59-9.43 58.91 0z" fill="#e1e1e1"/><path d="m191.85 390.85c16.32 9.42 16.41 24.7.19 34.12s-42.58 9.42-58.9 0-16.41-24.7-.19-34.12 42.58-9.42 58.9 0z" fill="#e1e1e1"/><path d="m250.38 450.87c-7.17-7.32-11.38-29.16-4.39-35h35.6c7 5.83 2.78 27.62-4.38 35l-.2.2-.25.24c-.2.2-.42.39-.64.58l-.18.14c-.17.13-.35.27-.54.4s-.62.42-.93.6c-5.9 3.4-15.46 3.4-21.36 0-.32-.19-.64-.39-.94-.6s-.34-.25-.5-.39l-.21-.16c-.23-.18-.43-.37-.63-.55l-.28-.29z" fill="#37474f"/><path d="m278.46 413.57c8.13 4.69 8.13 12.3 0 17s-21.29 4.69-29.41 0-8.12-12.29 0-17 21.33-4.69 29.41 0z" fill="#455a64"/><path d="m274.54 415.83c6 3.44 6 9 0 12.5s-15.63 3.44-21.6 0-6-9 0-12.5 15.65-3.45 21.6 0z" fill="#2e353a"/><path d="m253 421.75c6-3.44 15.63-3.44 21.6 0a9.92 9.92 0 0 1 3.57 3.27 9.86 9.86 0 0 1 -3.59 3.26c-6 3.44-15.63 3.44-21.6 0a9.69 9.69 0 0 1 -3.57-3.28 9.92 9.92 0 0 1 3.59-3.25z" fill="#ebebeb"/><path d="m257.69 407.19c1.06-1.59 2.63-2.81 3.59-4.47 2-3.48-.4-6.88.61-10.42a5.78 5.78 0 0 1 3.19-3.43 17.81 17.81 0 0 1 4.65-1.21 7.47 7.47 0 0 0 2.46-.7c.92-.52 1.2-1.43 1.78-2.23a15.5 15.5 0 0 1 2.25-2.4 8.85 8.85 0 0 1 6.1-2.64c4.84.22 4.71 4.39 3.33 7.54s-1.76 4.17 1.26 7.5 3 7.34-.57 9.61-6 2.58-4.53 6.94c1.27 3.91 2.06 7.24-1.55 11.42a11.76 11.76 0 0 1 -9.5 4.45c-7.22-.3-13.1-6.15-14.3-13.1a9.62 9.62 0 0 1 1.09-6.58z" fill="#b31566"/><path d="m257.69 407.19c1.06-1.59 2.63-2.81 3.59-4.47 2-3.48-.4-6.88.61-10.42a5.78 5.78 0 0 1 3.19-3.43 17.81 17.81 0 0 1 4.65-1.21 7.47 7.47 0 0 0 2.46-.7c.92-.52 1.2-1.43 1.78-2.23a15.5 15.5 0 0 1 2.25-2.4 8.85 8.85 0 0 1 6.1-2.64c4.84.22 4.71 4.39 3.33 7.54s-1.76 4.17 1.26 7.5 3 7.34-.57 9.61-6 2.58-4.53 6.94c1.27 3.91 2.06 7.24-1.55 11.42a11.76 11.76 0 0 1 -9.5 4.45c-7.22-.3-13.1-6.15-14.3-13.1a9.62 9.62 0 0 1 1.09-6.58z" fill="#b31566" opacity=".3"/><path d="m257.69 407.19c1.06-1.59 2.63-2.81 3.59-4.47 2-3.48-.4-6.88.61-10.42a5.78 5.78 0 0 1 3.19-3.43 17.81 17.81 0 0 1 4.65-1.21 7.47 7.47 0 0 0 2.46-.7c.92-.52 1.2-1.43 1.78-2.23a15.5 15.5 0 0 1 2.25-2.4 8.85 8.85 0 0 1 6.1-2.64c4.84.22 4.71 4.39 3.33 7.54s-1.76 4.17 1.26 7.5 3 7.34-.57 9.61-6 2.58-4.53 6.94c1.27 3.91 2.06 7.24-1.55 11.42a11.76 11.76 0 0 1 -9.5 4.45c-7.22-.3-13.1-6.15-14.3-13.1a9.62 9.62 0 0 1 1.09-6.58z" opacity=".3"/><path d="m282.36 398.58a.36.36 0 0 0 -.43-.26 57.75 57.75 0 0 0 -11.3 4.27 52 52 0 0 1 8.9-15.24.36.36 0 0 0 0-.51.37.37 0 0 0 -.5 0 50.29 50.29 0 0 0 -7.76 12.5 28.05 28.05 0 0 0 -3.65-5.94.36.36 0 0 0 -.51 0 .35.35 0 0 0 0 .5 27.2 27.2 0 0 1 3.8 6.37c-.41.95-.84 1.95-1.21 3a.38.38 0 0 0 -.09.25 62.41 62.41 0 0 0 -3.84 22.23.35.35 0 0 0 .34.36h.12a.36.36 0 0 0 .25-.34 61.73 61.73 0 0 1 3.81-22c4.31-2.66 11.8-4.63 11.87-4.66a.36.36 0 0 0 .26-.43s-.05-.09-.06-.1z" fill="#fff"/><path d="m264.35 427.83c-.2.12-1.86.7-2.1.77-2.66.77-6.13.36-9.27-.11-2.06-.31-4.85-.74-6.38-2.28a2.73 2.73 0 0 1 -.74-2.94c.48-1 1.84-1.67 1.95-2.81-2.25-.75-4.91-.16-6.92-1.41a8.2 8.2 0 0 1 -3.13-4.09 4.41 4.41 0 0 1 -.15-3.33c.54-1.12 2-1.39 3.23-1.58a2.37 2.37 0 0 0 .94-.27.86.86 0 0 0 .42-.84c-.1-.4-.52-.6-.91-.72-.84-.27-1.67-.43-2.5-.74a3.82 3.82 0 0 1 -2-1.55 5.1 5.1 0 0 1 -.38-3 45.66 45.66 0 0 1 .73-5.21 34.06 34.06 0 0 0 .42-4.51 31.68 31.68 0 0 1 13.15.3c2.38.49 5.83 1.6 6.87 4.08a4.58 4.58 0 0 1 .26 2.23 7.29 7.29 0 0 1 -.23 1c-.05.2-.26 1 .25.65a1 1 0 0 0 .25-.35l1.67-3.33a1.9 1.9 0 0 1 .66-.87c.67-.42 2.5-.09 4.36 1.41a7.32 7.32 0 0 1 2.35 4.13 20.1 20.1 0 0 1 -.29 7.64l1.62-2.26c1.91-2.64 3.08 2.19 3.16 3.23a22.78 22.78 0 0 1 -1.51 9.53 15.81 15.81 0 0 1 -5.78 7.23z" fill="#b31566"/><path d="m259.29 415.35a29.09 29.09 0 0 1 3.22-12.25v-.08a.32.32 0 0 0 -.15-.43.33.33 0 0 0 -.44.15v.09a30.52 30.52 0 0 0 -3.25 11.48c-5.18-8.72-12.77-17-16.76-19.15a.35.35 0 0 0 -.47.14.33.33 0 0 0 .12.46c3.94 2.14 11.44 10.34 16.54 19a20 20 0 0 0 -13-.87.33.33 0 0 0 -.21.41.34.34 0 0 0 .26.22h.16a19.3 19.3 0 0 1 13.33 1.22 35.7 35.7 0 0 1 4.61 11.83.35.35 0 0 0 .23.29h.16a.34.34 0 0 0 .29-.37c-.48-3.75-2.26-7.97-4.64-12.14z" fill="#fff"/><path d="m123.31 304.35v8.53a1.5 1.5 0 0 0 3 0v-8.53z" fill="#b31566"/><path d="m126.3 263.81a1.5 1.5 0 0 0 -3 0v40.54h3z" fill="#263238"/><path d="m129.93 260.94a1.5 1.5 0 1 0 -2 2.22l27 24.34 2.13-2.12z" fill="#263238"/><path d="m161.78 289.7-4.78-4.32-2.13 2.12 4.9 4.42a1.5 1.5 0 0 0 1 .39 1.54 1.54 0 0 0 1.12-.49 1.51 1.51 0 0 0 -.11-2.12z" fill="#b31566"/><path d="m87.83 289.7a1.51 1.51 0 0 0 -.11 2.12 1.54 1.54 0 0 0 1.12.49 1.5 1.5 0 0 0 1-.39l4.9-4.42-2.12-2.12z" fill="#b31566"/><path d="m121.8 261.05a1.49 1.49 0 0 0 -2.12-.11l-27.06 24.44 2.12 2.12 27-24.34a1.5 1.5 0 0 0 .06-2.11z" fill="#263238"/><path d="m133.63 260.05h-17.63v5.11c0 1.31.88 2.62 2.61 3.62a13.79 13.79 0 0 0 12.48 0c1.71-1 2.57-2.31 2.56-3.62z" fill="#37474f"/><path d="m131 256.44c3.45 2 3.47 5.23 0 7.22a13.73 13.73 0 0 1 -12.48 0c-3.46-2-3.48-5.23 0-7.22a13.75 13.75 0 0 1 12.48 0z" fill="#455a64"/><path d="m122.31 73.21v186.3a1.25 1.25 0 0 0 .73 1 3.88 3.88 0 0 0 3.54 0 1.22 1.22 0 0 0 .72-1v-186.3z" fill="#263238"/><path d="m43.16 116.56v160.32l161.86-93.44v-161.03z" fill="#455a64"/><path d="m49.15 120 149.87-87.16v147.13l-149.87 86.53z" fill="#fafafa"/><path d="m47.72 114a10 10 0 0 1 4.53 7.85c0 2.88-2 4-4.56 2.59a10 10 0 0 1 -4.53-7.85c.01-2.92 2.05-4.08 4.56-2.59z" fill="#263238"/><path d="m215 27.23c0-.08 0-.15 0-.22s0-.07 0-.1v-.05s0-.05 0-.08a1.8 1.8 0 0 0 0-.22 2.23 2.23 0 0 0 0-.23 2.07 2.07 0 0 0 0-.22c0-.08 0-.15 0-.23a.29.29 0 0 1 0-.09v-.05-.1l-.06-.24a1.21 1.21 0 0 1 -.05-.18v-.06c0-.08 0-.16-.08-.24a2.09 2.09 0 0 0 -.08-.23v-.14l-.09-.22c0-.06-.05-.11-.07-.16v-.17a2.14 2.14 0 0 1 -.1-.22l-.12-.24c0-.07-.07-.13-.1-.19l-.13-.24-.07-.11v-.05l-.13-.2-.18-.29c-.09-.14-.19-.27-.29-.41-.07-.09-.13-.18-.2-.26l-.17-.21-.17-.21-.18-.19-.13-.13-.19-.19-.06-.05-.1-.09-.2-.18-.09-.07-.07-.05-.2-.16-.15-.1-.19-.12-.19-.12h-.05l-.14-.08-.19-.1h-.12l-.19-.08-.18-.07h-.06-.12l-.19-.05h-.09-.1a1.2 1.2 0 0 0 -.2 0h-.12-.53l-.88-.54h-.06l-.26.07-.34.16-162.86 94.41a1.58 1.58 0 0 1 .35-.16 1.29 1.29 0 0 1 .28-.08h.34.08a1.93 1.93 0 0 1 .34 0l.38.05.4.12.43.18.45.24c.15.08.3.18.45.28.14.1.28.2.41.31.13.11.26.22.38.34h.05l.38.38c.13.14.26.29.38.44.12.15.25.31.37.48.11.14.21.3.32.45l.18.29.15.25a.75.75 0 0 0 .07.12l.23.42v.05c.09.17.17.35.25.53.07.18.15.35.21.53.07.18.13.36.19.54a4.42 4.42 0 0 1 .14.52c0 .18.07.36.1.53 0 .18.05.36.07.54v.53s0 .33 0 .49a2.83 2.83 0 0 1 -.06.42v.06c0 .13-.06.25-.1.37a.14.14 0 0 1 0 .07 3.05 3.05 0 0 1 -.13.32q-.09.18-.18.33l-.18.23-.07.08c0 .06-.11.11-.17.17l-.07.06a1.59 1.59 0 0 1 -.27.18l163.08-93.95a2.48 2.48 0 0 0 .26-.19l.07-.06.17-.16.07-.08a2 2 0 0 0 .18-.23 3.14 3.14 0 0 0 .18-.31 1.8 1.8 0 0 0 .08-.21.76.76 0 0 0 0-.11.25.25 0 0 0 0-.07.14.14 0 0 0 0-.06 1 1 0 0 0 .06-.23.29.29 0 0 0 0-.09v-.15s0-.06 0-.09v-.21a.57.57 0 0 0 0-.13v-.09c0-.07 0-.14 0-.22v-.22z" fill="#37474f"/><path d="m61.68 159.78 16 1.38.06 21.22c-10.2 5.89-18.49 1.17-18.53-10.56a33.74 33.74 0 0 1 2.47-12.04z" fill="#b31566"/><path d="m86.92 137.41c5.51.5 9.23 5.21 9.25 13.06 0 11.73-8.21 26-18.41 31.91l-.06-21.24 9.14-23.61z" fill="#b31566"/><path d="m77.64 139.94a15.93 15.93 0 0 1 9.25-2.49v.12l-9.19 23.59-16-1.38c3.16-8.18 9.11-15.9 15.94-19.84z" fill="#b31566"/><path d="m77.64 139.94a15.93 15.93 0 0 1 9.25-2.49v.12l-9.19 23.59-16-1.38c3.16-8.18 9.11-15.9 15.94-19.84z" fill="#fff" opacity=".2"/><path d="m61.68 159.78 16 1.38.06 21.22c-10.2 5.89-18.49 1.17-18.53-10.56a33.74 33.74 0 0 1 2.47-12.04z" fill="#b31566"/><path d="m68.99 219.39.01 3.49-9.61 5.54-.01-3.48z" fill="#e0e0e0"/><path d="m73.37 202.91.01 3.48-14.03 8.1-.01-3.48z" fill="#e0e0e0"/><path d="m90.35 200.09.01 3.48-30.99 17.89-.01-3.49z" fill="#e0e0e0"/><path d="m140.82 163.97.01 3.48-28.66 16.54-.01-3.48z" fill="#e0e0e0"/><path d="m86.92 137.41c5.51.5 9.23 5.21 9.25 13.06 0 11.73-8.21 26-18.41 31.91l-.06-21.24 9.14-23.61z" opacity=".1"/><path d="m109.17 121.74c1.54-.89 2.79-.18 2.8 1.59a6.15 6.15 0 0 1 -2.79 4.83c-1.54.89-2.79.17-2.8-1.6a6.12 6.12 0 0 1 2.79-4.82z" fill="#b31566"/><path d="m109.2 132.8c1.54-.89 2.79-.18 2.8 1.6a6.15 6.15 0 0 1 -2.78 4.82c-1.55.89-2.8.18-2.81-1.6a6.13 6.13 0 0 1 2.79-4.82z" fill="#b31566"/><path d="m109.23 143.86c1.54-.89 2.8-.17 2.8 1.6a6.12 6.12 0 0 1 -2.78 4.82c-1.55.9-2.8.17-2.81-1.6a6.13 6.13 0 0 1 2.79-4.82z" fill="#b31566"/><path d="m109.26 154.92c1.54-.89 2.8-.17 2.8 1.6a6.12 6.12 0 0 1 -2.78 4.82c-1.55.89-2.8.18-2.8-1.59a6.13 6.13 0 0 1 2.78-4.83z" fill="#b31566"/><g fill="#e0e0e0"><path d="m124.9 114.02.01 3.68-9.19 5.31-.01-3.69z"/><path d="m137.17 106.93.01 3.69-9.18 5.3-.01-3.68z"/><path d="m140.74 138.12.01 3.68-13.22 7.64-.01-3.69z"/><path d="m132.64 131.71.01 3.69-16.87 9.74-.01-3.69z"/><path d="m127.36 123.68.01 3.68-11.62 6.71-.01-3.68z"/><path d="m124.99 147.21.01 3.69-9.18 5.3-.01-3.68z"/><path d="m97.77 202.78.01 3.48-23.9 13.8-.01-3.49z"/><path d="m85.25 189.07.02 3.49-25.93 14.97-.01-3.49z"/><path d="m140.84 170.94.01 3.48-12.77 7.37-.01-3.48z"/><path d="m140.86 177.9.01 3.49-17.4 10.04-.01-3.49z"/><path d="m165.3 149.83.01 3.48-14.03 8.1-.01-3.48z"/><path d="m188.07 136.69.01 3.48-18.83 10.87-.01-3.48z"/></g><path d="m164.31 104.18.09 31.34-5.25 3.04-.09-31.35z" fill="#b31566"/><path d="m172.2 104.85.08 26.13-5.25 3.03-.08-26.12z" fill="#b31566"/><path d="m180.04 88.53.11 37.9-5.25 3.03-.11-37.9z" fill="#b31566"/><path d="m187.9 77.47.13 44.41-5.25 3.03-.13-44.4z" fill="#b31566"/><path d="m160.91 166.32.01 3.49-9.6 5.54-.01-3.49z" fill="#e0e0e0"/><path d="m118.58 190.76v3.49l-15.92 9.19-.01-3.48z" fill="#e0e0e0"/><path d="m123.19 181.13v3.48l-27.95 16.14-.01-3.48z" fill="#e0e0e0"/><path d="m110.16 174.69.01 3.49-20.02 11.55-.01-3.48z" fill="#e0e0e0"/><path d="m107.27 183.34.01 3.48-29.01 16.75-.01-3.48z" fill="#e0e0e0"/><path d="m188.11 150.62.01 3.48-22.31 12.88-.01-3.48z" fill="#e0e0e0"/><path d="m188.09 143.66.01 3.48-36.8 21.24-.01-3.48z" fill="#e0e0e0"/><path d="m177.18 135.99.01 3.49-25.93 14.97-.01-3.48z" fill="#e0e0e0"/><path d="m188.03 124.5.01 1.82-36.75 21.22-.01-1.83z" fill="#395a65"/><path d="m156.47 121.65.06 18.42-5.25 3.03-.06-18.42z" fill="#b31566"/><path d="m431.72 186.86c-1.45 16.1-.21 17.75-11.15 16.93v-16.93z" fill="#f28f8f"/><path d="m419.85 158c9.7-.62 17.75 2.69 12.59 30.44-4.75 2.58-12.59 1.15-12.59 1.15z" fill="#37474f"/><path d="m401.92 346.92c-.69 2.18-3.08 3.43-5.36 3.61s-4.53-.46-6.78-.87c-5-.91-9.89 0-14.91-.12a21.15 21.15 0 0 1 -4.87-.54 8 8 0 0 1 -4.2-2.47 5.47 5.47 0 0 1 -1.2-2.63 5.2 5.2 0 0 0 1.2 4.11 8.12 8.12 0 0 0 4.2 2.47 21.14 21.14 0 0 0 4.9.53c5 .12 9.88-.79 14.91.13 2.25.4 4.5 1 6.78.86s4.67-1.42 5.36-3.6a5.85 5.85 0 0 0 .18-2.32 4.83 4.83 0 0 1 -.21.84z" fill="#263238"/><path d="m401.79 342.75c-.31-1.52-.62-3.05-.92-4.57a6.9 6.9 0 0 0 -.78-2.33 2.31 2.31 0 0 0 -2-1.17c-2.75-.36-6.63-1.36-8.92.22a20.59 20.59 0 0 1 -12.33 3.58c-2.28-.09-4.56-.56-6.83-.28s-4.61 1.54-5.29 3.72a4.42 4.42 0 0 0 -.11 2 5.47 5.47 0 0 0 1.2 2.63 8 8 0 0 0 4.19 2.45 21.15 21.15 0 0 0 4.9.54c5 .12 9.88-.79 14.91.12 2.25.41 4.5 1 6.78.87s4.67-1.43 5.36-3.61a4.83 4.83 0 0 0 .18-.84 10.74 10.74 0 0 0 -.34-3.33z" fill="#37474f"/><path d="m388.46 330.1-.2 6a2.36 2.36 0 0 0 2.19 2.44 36.46 36.46 0 0 0 6-.06 3.38 3.38 0 0 0 3.07-3.19l.24-4.4z" fill="#ffa8a7"/><path d="m427.37 326.93a4.56 4.56 0 0 1 -.8 2.47 4.46 4.46 0 0 1 -2.81 1.58 7.12 7.12 0 0 1 -7-2.87c-.75-1.09-1.17-2.37-1.88-3.48a15.92 15.92 0 0 0 -3.92-3.8 16.86 16.86 0 0 1 -3.94-3.78 5.6 5.6 0 0 1 -.76-5.05 4.41 4.41 0 0 0 -.36.64 5.73 5.73 0 0 0 .7 5.37 16.93 16.93 0 0 0 4 3.89 16.2 16.2 0 0 1 4 3.93c.72 1.14 1.16 2.46 1.92 3.58a7.25 7.25 0 0 0 7.13 3 4.58 4.58 0 0 0 2.87-1.63 5.5 5.5 0 0 0 .83-3.43c.04-.16.03-.29.02-.42z" fill="#263238"/><path d="m425.57 319.45c-1.82-3.17-5.55-5.48-8.44-7.73a10.73 10.73 0 0 0 -5.58-2.54 5.24 5.24 0 0 0 -5.2 2.66c0 .05 0 .11-.07.16a5.6 5.6 0 0 0 .76 5.05 16.86 16.86 0 0 0 3.94 3.78 15.92 15.92 0 0 1 3.92 3.8c.71 1.11 1.13 2.39 1.88 3.48a7.12 7.12 0 0 0 7 2.87 4.46 4.46 0 0 0 2.81-1.58 4.56 4.56 0 0 0 .8-2.47 8.17 8.17 0 0 0 0-.86 14 14 0 0 0 -1.82-6.62z" fill="#37474f"/><path d="m417.71 316.7v5.42a9.09 9.09 0 0 0 8.43-.38l.51-4.87z" fill="#ffa8a7"/><path d="m428.07 218.43c1.62 4.87-.38 28-1.32 50.23 3.52 8.4 2.57 32.23.54 49.16 0 0-3.52 2.16-9.89 0l-8-46.72-1.1-26.41s-2 23.43-4.31 38.46c2.16 11.51 1.62 13.68-3.73 49.08a13.34 13.34 0 0 1 -12 0c-3-49.74-1.91-95.07-1.34-111.37z" fill="#455a64"/><path d="m386 181.05v41.17c24.24 10.15 39.94 1 42.08-3.79-1.12-16.76 2.84-36.36 2.54-44.69s-1.33-17.71-14.24-15.83l-13.73 1.34-7 1.69z" fill="#b31566"/><path d="m394.48 127.22c-2.94-1.11-5.82-5.34-2.87-7.2.82-.61 3.21.1 5.14 0-1.69-1.53-2.1-3.36-1.25-3.93s3.12 1.59 7.23 1.18 18.28-5 20.06 5.39a2.72 2.72 0 0 1 4.21-.66l-3 2c4.37 6.14 2.95 13.25-7.63 27.3a7.77 7.77 0 0 1 -10.37 1.52l-4.37-10.77-4.26-5.18z" fill="#263238"/><path d="m393.5 135.82-2.84 4.95 3.11 1.15z" fill="#f28f8f"/><path d="m394.48 127.22a46 46 0 0 0 -.81 21 7.24 7.24 0 0 0 1.3 3.33 5.25 5.25 0 0 0 3.62 1.66 15.43 15.43 0 0 0 4.05-.39v6.43c4.88 1.15 9.9 1.61 13.73-1.34v-6.58a17.41 17.41 0 0 1 -8.53.53c-3.37-1.82-4-8-3.57-9.6a2.52 2.52 0 0 0 2.64.92 3.55 3.55 0 0 0 2.19-1.74 7.38 7.38 0 0 0 .81-2.73 4.93 4.93 0 0 0 -.5-3.39 3.54 3.54 0 0 0 -3.82-1.29 5.47 5.47 0 0 0 -3.21 2.69 7.64 7.64 0 0 0 -.57 1.23.76.76 0 0 1 -1.48-.19 10.18 10.18 0 0 1 1-5.38 3.74 3.74 0 0 1 -2.76-1.69 3.52 3.52 0 0 1 -.53-3.09 10.33 10.33 0 0 1 -3.56-.38z" fill="#ffa8a7"/><path d="m409 260.77-.9-21.53c5.56 0 10.73-4.16 14.65-8.1-3.77 6.72-11.08 9.7-11.08 9.7z" opacity=".2"/><path d="m386 210.32v-12l4.13-7.8-12.45-7.74-6.58 13.34a8.1 8.1 0 0 0 5.11 11.4z" fill="#ffa8a7"/><path d="m385.99 198.33-4.25 6.24 4.25-1.78z" fill="#f28f8f"/><path d="m395.67 160.94-3.14.45a12.64 12.64 0 0 0 -9.78 7.46l-6.68 15.41c5.15 8.21 15.06 7.59 15.06 7.59l6.76-13.08a15.87 15.87 0 0 0 -2.22-17.77z" fill="#37474f"/><path d="m319.16 137.76 3.34-2.48a6.57 6.57 0 0 0 2.27-3.05l.79-2.17a8.18 8.18 0 0 1 2.8-3.74 28.09 28.09 0 0 0 5.12-4.92 3.08 3.08 0 0 1 .22 3.89 22.43 22.43 0 0 1 -2 2.35l1.84.12a6.39 6.39 0 0 0 3.79-.92l4.67-2.84a.89.89 0 0 1 1.35.75 20.53 20.53 0 0 1 -1.35 6.76 7.61 7.61 0 0 1 -4.5 4.49c-2.48.95-4.89 1.77-6.27 2.23a7.88 7.88 0 0 0 -2.19 1.14l-4.91 3.63z" fill="#ffa8a7"/><path d="m322.79 134.53-4.22 2.72a8.25 8.25 0 0 0 5.43 7.05l3.87-3.66s-3.73-.58-5.08-6.11z" fill="#37474f"/><path d="m320.14 141.42a8.48 8.48 0 0 1 -1.57-4.17l-13.18 8.51-7.78-21.76a8.23 8.23 0 0 0 -6.68-5.38l-3.8-.49 3.54 25.49 6.06 12.15a8.09 8.09 0 0 0 12.37 2.64l14.9-14.11a8.44 8.44 0 0 1 -3.86-2.88z" fill="#455a64"/><path d="m304 283.94a8.17 8.17 0 0 1 -6.17 2.27 18.86 18.86 0 0 1 -6.52-1.64c-2.08-.86-4.7-3.26-7-3.22a53.63 53.63 0 0 1 -6.59-.45 34.58 34.58 0 0 1 .93-8.93l10.53-.28c2.84 3.89 8.37 7.13 12.55 8.35a3.68 3.68 0 0 1 2.6 2.76.15.15 0 0 1 0 .07 4 4 0 0 1 -.33 1.07z" fill="#455a64"/><path d="m284.31 281.35c2.26 0 4.88 2.36 7 3.22a18.86 18.86 0 0 0 6.52 1.64 8.17 8.17 0 0 0 6.17-2.27 4 4 0 0 0 .36-1.07.15.15 0 0 0 0-.07 3.35 3.35 0 0 1 0 1.41 4.2 4.2 0 0 1 -.36 1.07 8.25 8.25 0 0 1 -6.17 2.27 18.66 18.66 0 0 1 -6.52-1.65c-2.08-.86-4.7-3.26-7-3.21a48.91 48.91 0 0 1 -6.49-.38c-.05-.47-.08-.94-.1-1.41a53.63 53.63 0 0 0 6.59.45z" fill="#263238"/><path d="m254.59 284.93a15.41 15.41 0 0 0 .31 3.19 7.4 7.4 0 0 0 2.92 4.66 9.44 9.44 0 0 0 4.64 1.24 10.49 10.49 0 0 0 4.25-.44 4.84 4.84 0 0 0 2.48-2 .07.07 0 0 1 0 .05 4.46 4.46 0 0 1 -2.86 3 10.27 10.27 0 0 1 -4.24.44 9.39 9.39 0 0 1 -4.64-1.24 7.4 7.4 0 0 1 -2.92-4.65 15.58 15.58 0 0 1 -.32-3.2 5.35 5.35 0 0 0 -1.71-3.9c-.26-.25-.51-.5-.74-.77a1.87 1.87 0 0 1 -.46-1.39c0-.2 0-.4.06-.59.39.45 1.3 1.53 1.53 1.75a5.39 5.39 0 0 1 1.7 3.85z" fill="#263238"/><path d="m262.64 273.81a11.71 11.71 0 0 0 .82 6.47 24.6 24.6 0 0 0 3.43 5.63 16.62 16.62 0 0 1 1.79 2.62 4.63 4.63 0 0 1 .51 3 4.84 4.84 0 0 1 -2.48 2 10.49 10.49 0 0 1 -4.25.44 9.44 9.44 0 0 1 -4.64-1.24 7.4 7.4 0 0 1 -2.92-4.66 15.41 15.41 0 0 1 -.31-3.19 5.39 5.39 0 0 0 -1.71-3.9c-.23-.22-1.14-1.3-1.53-1.75a11.82 11.82 0 0 1 1.58-4.51z" fill="#455a64"/><path d="m293.74 169.81-.87 60.06-2.84 42c-7.17 4.54-12.37.82-12.37.82-2.72-19.91-3.09-32.15-1.6-40.44l-1.36-32.41-4.09 33.64-6.86 41.25c-7.36 4.77-12.56 0-12.56 0 0-15.27-1.36-32.34 2.85-43.35a252.89 252.89 0 0 1 2-61z" fill="#263238"/><path d="m276.2 187.5-1.5 12.37.63 15.18 2.77-25c6.4-2.51 7.23-6 7.23-6a19.71 19.71 0 0 1 -9.13 3.45z" opacity=".3"/><path d="m280.11 117.37 7 .74c5.75 5.07 8.72 15.71 7.48 27.46a208.16 208.16 0 0 0 -.87 24.24c-15.58 11.38-35.25 3.1-37.72.62l1.15-14.4a10 10 0 0 0 -.78-4.75c-1.48-3.42-4.1-10.14-4.45-15.36a27.25 27.25 0 0 1 2.84-13.42l10.24-4.45z" fill="#37474f"/><path d="m256.39 151.28a60.57 60.57 0 0 1 -4.23-13.43c1.45.87 3 1.73 3.58 3.18a25.5 25.5 0 0 1 1.44 14.7 10 10 0 0 0 -.79-4.45z" fill="#37474f"/><path d="m282.06 127.61a76.06 76.06 0 0 1 5.78 27.39l-2.84 6.25-4.53-5.94a233.39 233.39 0 0 0 -.55-27.3z" fill="#b31566"/><path d="m282.3 122.5a21.25 21.25 0 0 1 -.24 5.11 4.16 4.16 0 0 1 -2.19.4 18 18 0 0 1 -3.51-4.24l3.51-1.27z" fill="#b31566"/><path d="m279.87 122.5c-3 1.12-5.71 6.5-5.71 6.5-7.94-6.74-9.17-11-9.17-11a7.83 7.83 0 0 1 4.26-3.37z" fill="#37474f"/><path d="m279.87 122.5c2.31.06 4.35 3.28 4.35 3.28.37-5.63-4.35-10-4.35-10z" fill="#37474f"/><path d="m269.07 108.38 10.8 3.86v4a17.71 17.71 0 0 1 -6.85-2.49 10.47 10.47 0 0 1 -3.95-5.37z" fill="#f28f8f"/><path d="m269.07 108.38a10.47 10.47 0 0 0 3.95 5.37 17.71 17.71 0 0 0 6.85 2.49v6.26s-11.42-5.13-11.42-7.54v-6.81z" fill="#ffa8a7"/><path d="m289.88 92.53a6.54 6.54 0 0 0 4.25-1.38 6.61 6.61 0 0 0 1.68-2 .9.9 0 0 0 -1-1.29 7.07 7.07 0 0 1 -2.51 0 11.85 11.85 0 0 0 2.33-8.84 1.12 1.12 0 0 0 -1.59-.84 21.83 21.83 0 0 1 -11.04 2.32c-2-.15-4.05-.58-6.09-.74a11.33 11.33 0 0 0 -6 .92 5.68 5.68 0 0 0 -3.27 4.82 2.81 2.81 0 0 0 -2-1.17 3.06 3.06 0 0 0 -2.36.7c1.18.64 2.33 1.3 3.51 1.94-1.21-.43-2.73.52-3.33 1.65a8 8 0 0 0 -.65 3.76 28 28 0 0 0 .23 5.1 9.87 9.87 0 0 0 1.93 4.67 7.38 7.38 0 0 0 3.51 2.38 9.6 9.6 0 0 0 5.71-.18 23.13 23.13 0 0 0 5.17-2.58 80.76 80.76 0 0 0 11.52-9.24z" fill="#e0e0e0"/><path d="m290.14 89.13a39.31 39.31 0 0 1 -2.25 21 7.52 7.52 0 0 1 -2.85 4c-1.5.86-3.37.68-5.08.42a26 26 0 0 1 -8-2.26 11 11 0 0 1 -5.56-6 4.81 4.81 0 0 1 -4.87-1.91 9.12 9.12 0 0 1 -1.61-5.38c0-1.2.22-2.62 1.3-3.15a3 3 0 0 1 3.09.77 9.17 9.17 0 0 1 3 4.5c.79-2.93 2-5.76 2.82-8.69a4.94 4.94 0 0 1 1.71-3c1.23-.79 2.83-.34 4.25 0a27.87 27.87 0 0 0 14.05-.3z" fill="#ffa8a7"/><path d="m281.6 98.03 3.42 5.77-4.08.76z" fill="#f28f8f"/><path d="m277 106.55 3.11 1.51a2 2 0 0 1 -2.36.67 1.83 1.83 0 0 1 -.75-2.18z" fill="#f28f8f"/><path d="m277 106.55 3.11 1.51a2 2 0 0 1 -2.36.67 1.83 1.83 0 0 1 -.75-2.18z" opacity=".3"/><path d="m278.83 108.83a1.79 1.79 0 0 1 -1.08-.1 1.66 1.66 0 0 1 -.83-1.63 1.88 1.88 0 0 1 1.91 1.73z" fill="#f28f8f"/><path d="m275.68 98.26a1.18 1.18 0 1 0 1.32-1.05 1.18 1.18 0 0 0 -1.32 1.05z" fill="#263238"/><path d="m285.52 98.87a1.18 1.18 0 1 0 1.29-1.05 1.18 1.18 0 0 0 -1.29 1.05z" fill="#263238"/><path d="m287.13 94.34 2.4 2a1.69 1.69 0 0 0 -.32-1.89 2 2 0 0 0 -2.08-.11z" fill="#e0e0e0"/><path d="m277.14 93.19-2.77 1.53a1.69 1.69 0 0 1 .69-1.78 2 2 0 0 1 2.08.25z" fill="#e0e0e0"/><path d="m230.91 147.86-3.73-1.86a6.62 6.62 0 0 1 -2.77-2.6l-1.17-2a8.17 8.17 0 0 0 -3.42-3.17 28.07 28.07 0 0 1 -5.92-3.93 3.09 3.09 0 0 0 .48 3.87 22.18 22.18 0 0 0 2.43 1.94l-1.79.45a6.39 6.39 0 0 1 -3.89-.23l-5.11-2a.88.88 0 0 0 -1.19 1 19.94 19.94 0 0 0 2.53 6.41 7.62 7.62 0 0 0 5.19 3.64c2.61.49 5.13.87 6.56 1.08a7.71 7.71 0 0 1 2.36.73l5.48 2.72z" fill="#ffa8a7"/><path d="m234.46 153.6a9.29 9.29 0 0 0 .65-4.86l7 3.32a143.74 143.74 0 0 0 3-15.48c.84-7.05.65-11.79 9.71-14.08l1 18.53s-1.11 22.63-7.61 25.14c-5.37 2.07-9.17-3-17.37-8.34a9.27 9.27 0 0 0 3.62-4.23z" fill="#455a64"/><path d="m228.67 146.46 6.44 2.28a9.11 9.11 0 0 1 -4.35 9.09 47.05 47.05 0 0 1 -5.34-4.26s2.79-.98 3.25-7.11z" fill="#37474f"/><path d="m291.5 372.95 70.99-41.06 46.2 26.89-70.35 40.86z" fill="#e6b5e4"/><path d="m291.5 428.86v-55.91l46.84 26.69v56.26z" fill="#b31566"/><path d="m338.34 455.9 70.35-40.86v-56.26l-70.35 40.86z" fill="#b31566"/><path d="m338.34 455.9 70.35-40.86v-56.26l-70.35 40.86z" opacity=".3"/><path d="m286.1 366.62 77.54-44.84 50.44 29.37-76.83 44.62z" fill="#b31566"/><path d="m286.1 373.87v-7.25l51.15 29.15v7.63z" fill="#b31566"/><path d="m337.25 403.4 76.83-44.63v-7.62l-76.83 44.62z" fill="#b31566"/><path d="m286.1 373.87v-7.25l51.15 29.15v7.63z" fill="#fff" opacity=".3"/><path d="m337.25 403.4 76.83-44.63v-7.62l-76.83 44.62z" opacity=".2"/><g fill="#b31566" opacity=".2"><path d="m49.15 120 282.74 202.79 13.53-7.86-146.4-282.09z"/><path d="m331.89 322.79v12.11l-282.74-68.4v-146.5z"/></g><path d="m329.98 323.9 17.34-10.08 5.58 3.04-17.82 10.31z" fill="#37474f"/><path d="m329.98 323.9v14.77l4.99 3.03.11-14.53z" fill="#263238"/><path d="m303.82 345.24 55.46-32.07 36.08 21.01-54.95 31.92z" fill="#455a64"/><path d="m339.78 329.84 20.46-11.83 13.32 7.75-20.28 11.78z" fill="#263238"/><path d="m303.82 362.97v-17.73l36.59 20.86v18z" fill="#37474f"/><path d="m340.41 384.1 54.95-31.92v-18l-54.95 31.92z" fill="#263238"/><path d="m335.77 373.23a1.32 1.32 0 0 1 .6 1c0 .38-.27.54-.6.35l-16.13-9.31a1.33 1.33 0 0 1 -.6-1c0-.38.27-.53.6-.34z" fill="#263238"/><path d="m335.78 371a1.31 1.31 0 0 1 .59 1c0 .38-.27.53-.6.34l-16.12-9.34a1.31 1.31 0 0 1 -.6-1c0-.38.27-.53.6-.34z" fill="#263238"/><path d="m335.76 375.49a1.32 1.32 0 0 1 .6 1c0 .38-.27.54-.6.35l-16.13-9.31a1.35 1.35 0 0 1 -.6-1c0-.38.28-.53.61-.34z" fill="#263238"/><path d="m335.78 368.71a1.33 1.33 0 0 1 .6 1c0 .38-.27.53-.6.34l-16.13-9.31a1.32 1.32 0 0 1 -.6-1 .37.37 0 0 1 .61-.35z" fill="#263238"/><path d="m345.05 373.23a1.32 1.32 0 0 0 -.6 1c0 .38.27.54.6.35l22.14-12.82a1.32 1.32 0 0 0 .6-1c0-.38-.27-.53-.6-.34z"/><path d="m345 371a1.31 1.31 0 0 0 -.59 1c0 .38.27.53.6.34l22.14-12.82a1.28 1.28 0 0 0 .59-1c0-.38-.27-.54-.6-.35z"/><path d="m345.06 375.49a1.29 1.29 0 0 0 -.6 1c0 .38.27.54.6.35l22.14-12.82a1.33 1.33 0 0 0 .6-1c0-.38-.27-.53-.61-.34z"/><path d="m345 368.71a1.31 1.31 0 0 0 -.6 1c0 .38.27.53.6.34l22.14-12.82a1.32 1.32 0 0 0 .6-1c0-.38-.27-.53-.6-.34z"/><path d="m370.8 358.39a1.32 1.32 0 0 0 -.6 1c0 .38.27.54.6.35l22.14-12.74a1.33 1.33 0 0 0 .6-1c0-.38-.27-.53-.6-.34z"/><path d="m370.79 356.13a1.3 1.3 0 0 0 -.59 1c0 .39.27.54.6.35l22.14-12.82a1.28 1.28 0 0 0 .59-1c0-.38-.27-.54-.6-.35z"/><path d="m370.81 360.65a1.29 1.29 0 0 0 -.6 1c0 .38.27.54.6.35l22.19-12.79a1.33 1.33 0 0 0 .6-1c0-.38-.27-.53-.61-.34z"/><path d="m370.79 353.87a1.33 1.33 0 0 0 -.6 1c0 .38.27.53.6.34l22.14-12.82a1.32 1.32 0 0 0 .6-1c0-.38-.27-.54-.6-.34z"/><path d="m171.87 403.44a31.86 31.86 0 0 0 14.49 8.25c1.57.4 3.42.88 4 2.4s-.41 3-1.63 4a9.84 9.84 0 0 1 -7 1.58 30.92 30.92 0 0 1 -7-2 26.07 26.07 0 0 0 -7.07-1.8 33.09 33.09 0 0 1 -3.45-.2 4.18 4.18 0 0 1 -2.89-1.7c0-7 1.82-9.54 1.82-9.54z" fill="#37474f"/><path d="m172 400.33v4.76c-3.2 3.5-8.28 1.17-8.9-.69l-.16-4.07z" fill="#8c4c4c"/><path d="m148.12 383.27c5.69-5.14 8.85-4.94 10.22-3.91s3.84 4.32-2.47 9.88-5.83 9-10.22 9-3.57-4.39-3.57-4.39a19.36 19.36 0 0 1 .69-4.5z" fill="#37474f"/><path d="m150.18 386.57v3.36c-2.68 2.3-7.17 1-7.41-.59l.23-3.34z" fill="#8c4c4c"/><path d="m176.25 293.13 2.46 58.45-6.71 48.75c-3.57 2.29-9.06 0-9.06 0-.73-15-4-36.27-1.42-47.65l-4.94-31.42-1.58 25.24c-.28 14.82-4.12 30.6-4.8 40.07a8.32 8.32 0 0 1 -7.2-.57c-2.22-19.71-6.61-30.33-2.4-44.41-2.93-26.53-5.43-43-1.75-49.72z" fill="#455a64"/><path d="m155.68 315.27.94 6-.51 8-1.89-12.49a11.42 11.42 0 0 1 -8.16-5.22 21.18 21.18 0 0 0 9.62 3.71z" opacity=".2"/><path d="m164.89 238.39-17.24-2.31c-7.21-.7-10.31 7.22-10.21 14.53.05 4.31 3 20.72 4.42 32-2.85 6.87-5.7 15.66-5.7 21.21 13.12 11.22 37.62 3.1 40.52-.3 0-18-1.37-45.12-1.37-45.12z" fill="#f5f5f5"/><path d="m174.08 217.59 2.69 4.68-2.95 1.09z" fill="#632c2c"/><path d="m174.38 215.5c-.43-4.11-1.63-8-4.31-9.95a22.11 22.11 0 0 1 -3.08 14.7 6.44 6.44 0 0 0 -2-3.52 3.71 3.71 0 0 0 -3.83-.82 3.81 3.81 0 0 0 -1.92 2.1 5 5 0 0 0 6.23 6.59 9.56 9.56 0 0 1 -7.36 7.46 12.35 12.35 0 0 1 -7.15-.67l-1.11 5.53c4.51 4.81 12.21 1.58 12.21 1.58l1-5.45c8.87.53 9.7.38 10.67-4.51a47.51 47.51 0 0 0 .65-13.04z" fill="#8c4c4c"/><path d="m175.44 205.65a14.24 14.24 0 0 0 -8.46-7.73 24.15 24.15 0 0 0 -11.64-.89 21.21 21.21 0 0 0 -7 2.05 11.77 11.77 0 0 0 -5.14 5.12l-.46-3.78a2.76 2.76 0 0 0 -2 1.83 3 3 0 0 0 .69 2.77h-.35a11.89 11.89 0 0 0 -11.89 11.9v20.19a11.68 11.68 0 0 0 11.67-11.68v-4.64a22.06 22.06 0 0 0 6.72 8.75 15 15 0 0 0 3.38 1.85 12.35 12.35 0 0 0 7.15.67 9.56 9.56 0 0 0 7.36-7.46 5 5 0 0 1 -6.23-6.59 3.81 3.81 0 0 1 1.92-2.1 3.71 3.71 0 0 1 3.83.82 6.44 6.44 0 0 1 2 3.52 22.11 22.11 0 0 0 3.08-14.7c2.68 2 3.88 5.84 4.31 9.95a10.45 10.45 0 0 0 1.06-9.85z" fill="#263238"/><path d="m165.12 252.8 10.35 7.49c.19 2.41.29 7.33.47 12.77-1.7-1.92-3.12-4.33-4.62-6.42a38 38 0 0 1 -6.2-13.84z" fill="#e6e6e6"/><path d="m222.15 224.55-12.11 35.09-25.04-13.89 11.98-34.7z" fill="#b31566"/><path d="m188.72 244.33 9.97-28.9 19.73 10.58-10.08 29.2z" fill="#fff"/><path d="m202.17 217.57 10.96 5.75.48-1.46-2.13-1.87-6-3.02-2.74-.51z" fill="#455a64"/><path d="m205.48 216.97.47-1.11 5.86 3.14-.33.99z" fill="#37474f"/><path d="m202.55 214.03 13.25 7.12.57-1.38-13.37-7.02z" fill="#455a64"/><path d="m206.13 214.39c1.16-3.65 8.08-.21 6.73 3.53z" fill="#37474f"/><path d="m183.21 252.87 9.24 12 16.06-15.8a5.59 5.59 0 0 0 1.63-3.29c.77-6 2.43-10.27 4.56-9.52 1.34.47-.38 6.31-.38 6.31l2-1.15 2.33-6.76h1.06a2.68 2.68 0 0 1 2.52 1.79l1 2.89a8.49 8.49 0 0 1 -3 9.61l-3.53 2.61a5.49 5.49 0 0 0 -1.3 1.44 176.56 176.56 0 0 1 -18.84 24.08 4.8 4.8 0 0 1 -6.08.62c-9.83-6.5-17.95-17.48-17.95-17.48z" fill="#8c4c4c"/><path d="m164.89 238.39 1.57.19a19.48 19.48 0 0 1 13.11 7.47l11.77 15.33a12.78 12.78 0 0 1 -9.92 11.27l-12.93-13.65c-6.76-7.39-3.6-20.61-3.6-20.61z" fill="#b31566"/></svg>